<svg xmlns="http://www.w3.org/2000/svg" viewBox="-6.7 -7.5 184.3 87.5" enable-background="new -6.7 -7.5 184.3 87.5"><path d="M29.3 21.3c-3-2.5-7.7-3.8-14.1-3.8-3.3 0-6.1.3-8.4 1-2.3.7-4.3 1.6-5.8 2.8-1.5 1.2-2.6 2.6-3.3 4.2-.7 1.6-1 3.3-1 5.1v2.6H6c0-2.1.6-3.9 1.9-5.4 1.3-1.5 3.7-2.2 7.4-2.2 1.8 0 3.3.2 4.5.6 1.2.4 2.2.9 2.9 1.6.7.7 1.2 1.4 1.5 2.1.3.8.4 1.5.4 2.2v2.1c0 .9-.2 1.6-.5 2.3-.3.7-.7 1.2-1.1 1.7-.4.5-.9.9-1.4 1.1-.5.3-.9.5-1.1.6-.3.1-1 .3-2.2.8-1.2.4-2.5.9-4.1 1.5-1.6.5-3.2 1.1-4.9 1.7-1.7.6-3.2 1.1-4.5 1.5-2.6.9-4.6 2.5-6.1 4.8-1.4 2.3-2.1 4.8-2.1 7.5V63c0 1.3.2 2.7.7 4.3.5 1.6 1.4 3 2.8 4.3 1.4 1.3 3.3 2.4 5.7 3.3 2.4.9 5.5 1.3 9.4 1.3 3.9 0 7-.4 9.4-1.3 2.4-.9 4.3-2 5.7-3.3 1.4-1.3 2.3-2.7 2.8-4.3.5-1.6.7-3 .7-4.3V30.7c-.1-3.8-1.5-6.9-4.5-9.4zm-4.7 38.5c0 2.6-.7 4.6-2 6.1-1.3 1.4-3.8 2.1-7.4 2.1-3.6 0-6-.7-7.3-2-1.3-1.3-2-3.4-2-6.2 0-1.4.3-2.5.8-3.4.5-.9 1.1-1.7 1.8-2.2.8-.7 1.6-1.2 2.5-1.5 1.2-.4 2.4-.9 3.7-1.3 1.1-.4 2.3-.8 3.5-1.3 1.3-.5 2.5-.9 3.5-1.3.5-.1 1.1-.4 1.6-.8.6-.4.9-.9 1.1-1.6l.2 13.4zM43.1-3.8h9.2v79.1h-9.2zM89.6 60h-.1v1.2c0 .7-.1 1.4-.3 2.1-.2.8-.7 1.5-1.3 2.1-.7.7-1.6 1.2-2.8 1.7-1.2.5-2.9.7-5 .7-2 0-3.7-.2-4.9-.7-1.2-.5-2.1-1.1-2.7-1.7-.6-.7-1-1.4-1.2-2.2-.2-.8-.3-1.5-.3-2.1V60h-.1V18.3h-9.2v44.6c0 .8.1 1.9.4 3.4.3 1.5 1.1 3 2.3 4.4 1.2 1.5 3.1 2.7 5.6 3.8 2.5 1.1 5.9 1.6 10.2 1.6 4.4 0 7.8-.5 10.2-1.6 2.5-1.1 4.3-2.3 5.6-3.8 1.2-1.5 2-2.9 2.3-4.4.3-1.5.4-2.6.4-3.5V18.3h-9.2l.1 41.7zm26.9-40.8c-2.5 1.1-4.3 2.3-5.6 3.8-1.2 1.5-2 2.9-2.3 4.4-.3 1.5-.4 2.6-.4 3.4v44.5h9.3V32.6c0-.7.1-1.4.3-2.1.2-.8.6-1.5 1.3-2.2.7-.7 1.6-1.3 2.8-1.8 2.6-1.2 8.1-.9 9-.9l2.1-8c-1-.1-4.3-.3-5.6-.3-4.5.1-8.5.8-10.9 1.9zm53.4 2.1c-3-2.5-7.7-3.8-14.1-3.8-3.3 0-6.1.3-8.4 1-2.3.7-4.3 1.6-5.8 2.8-1.5 1.2-2.6 2.6-3.3 4.2-.7 1.6-1 3.3-1 5.1v2.6h9.3c0-2.1.6-3.9 1.9-5.4 1.3-1.5 3.7-2.2 7.4-2.2 1.8 0 3.3.2 4.5.6 1.2.4 2.2.9 2.9 1.6.7.7 1.2 1.4 1.5 2.1.3.8.4 1.5.4 2.2v2.1c0 .9-.2 1.6-.5 2.3-.3.7-.7 1.2-1.1 1.7-.4.5-.9.9-1.4 1.1-.5.3-.9.5-1.1.6-.3.1-1 .3-2.2.8-1.2.4-2.5.9-4.1 1.5s-3.2 1.1-4.9 1.7c-1.7.6-3.2 1.1-4.5 1.5-2.6.9-4.6 2.5-6.1 4.8-1.4 2.3-2.1 4.8-2.1 7.5V63c0 1.3.2 2.7.7 4.3.5 1.6 1.4 3 2.8 4.3 1.4 1.3 3.3 2.4 5.7 3.3 2.4.9 5.5 1.3 9.4 1.3 3.9 0 7-.4 9.4-1.3 2.4-.9 4.3-2 5.7-3.3 1.4-1.3 2.3-2.7 2.8-4.3.5-1.6.7-3 .7-4.3V30.7c-.1-3.8-1.5-6.9-4.5-9.4zm-4.7 38.5c0 2.6-.7 4.6-2 6.1-1.3 1.4-3.8 2.1-7.4 2.1-3.6 0-6-.7-7.3-2-1.3-1.3-2-3.4-2-6.2 0-1.4.3-2.5.8-3.4.5-.9 1.1-1.7 1.8-2.2.8-.7 1.6-1.2 2.5-1.5 1.2-.4 2.4-.9 3.7-1.3 1.1-.4 2.3-.8 3.5-1.3 1.3-.5 2.5-.9 3.5-1.3.5-.1 1.1-.4 1.6-.8.6-.4.9-.9 1.1-1.6l.2 13.4z" fill="#fff"/></svg>